<svg width="466" height="548" viewBox="0 0 466 548" fill="none" xmlns="http://www.w3.org/2000/svg">
<path d="M149.064 463.358C145.799 467.823 138.773 464.464 140.197 459.119L145.198 440.346L173.456 351.148L205.899 257.006L263.603 283.913L211.543 368.908L160.632 447.543L149.064 463.358Z" fill="#D9D9D9"/>
<path d="M145.193 128.228C144.38 122.714 150.025 118.508 155.076 120.863L399.653 234.912C404.669 237.251 405.115 244.211 400.438 247.171L315.191 301.124C311.161 303.674 306.11 303.998 301.787 301.982L234.926 270.804L167.963 239.579C163.696 237.589 160.715 233.589 160.029 228.931L145.193 128.228Z" fill="#B91C1C"/>
<path d="M399.654 234.912C404.669 237.251 405.115 244.211 400.438 247.171L315.191 301.124C311.161 303.674 306.11 303.998 301.787 301.982L240.041 273.189C241.045 273.657 242.101 274.005 243.187 274.224L299.077 285.508C302.057 286.109 305.151 285.725 307.893 284.412L347.416 265.49L387.081 245.391C391.675 243.063 391.997 236.623 387.657 233.849L373.406 224.938L355.666 214.4L399.654 234.912Z" fill="#9D2424"/>
<circle cx="307.45" cy="116.44" r="58.8933" transform="rotate(25 307.45 116.44)" fill="#B91C1C"/>
<path d="M352.93 79.0966C366.733 96.021 370.517 120.002 360.668 141.123C346.95 170.541 311.981 183.269 282.562 169.551C269.379 163.403 259.548 152.986 253.947 140.715C259.37 147.363 266.339 152.924 274.636 156.793C304.054 170.51 339.023 157.782 352.741 128.364C360.311 112.13 359.827 94.207 352.93 79.0966Z" fill="#9D2424"/>
<path d="M211.455 368.884L160.636 447.331L149.091 463.102C147.628 465.101 145.413 465.53 143.539 464.915L153.328 443.923L197.002 362.145L241.518 273.878L263.417 284.09L211.455 368.884Z" fill="#CECECE"/>
</svg>
