<svg width="158" height="249" viewBox="0 0 158 249" fill="none" xmlns="http://www.w3.org/2000/svg">
<path d="M83.2153 224.456C82.2263 229.46 75.0297 229.478 74.1366 224.456L67.6937 174.992L62.1582 122.195H96.1013L90.0976 174.992L83.2153 224.456Z" fill="#1E3A8A"/>
<path d="M90.0496 175L83.1697 224.354C82.6968 226.74 80.8103 227.988 78.8708 228.099V224.354L81.5476 175L83.1697 122.322H96.0515L90.0496 175Z" fill="#1F2937"/>
<path d="M7.15006 78.7169C4.08334 74.0626 7.42148 67.8655 12.9953 67.8655L144.819 67.8655C150.353 67.8655 153.699 73.9851 150.711 78.6441L126.834 115.879C124.259 119.894 119.818 122.322 115.049 122.322H79.2921H43.4229C38.7152 122.322 34.3227 119.956 31.7325 116.025L7.15006 78.7169Z" fill="#1E3A8A"/>
<path d="M144.819 67.8654C150.353 67.8656 153.699 73.9849 150.712 78.6437L126.834 115.879C124.259 119.894 119.818 122.322 115.049 122.322H81.5222C82.63 122.322 83.7344 122.19 84.8112 121.93L111.475 115.486C114.43 114.772 117.072 113.116 119.003 110.768L132.447 94.4093L147.084 75.7618C148.779 73.6019 147.483 70.4177 144.761 70.0548L135.868 68.9601L124.922 67.8654H144.819Z" fill="#1F2937"/>
<circle cx="79.5541" cy="31.3973" r="31.3973" fill="#1E3A8A"/>
<path d="M93.1093 3.1051C103.595 8.17133 110.829 18.9068 110.829 31.3326C110.829 48.6373 96.8006 62.6655 79.496 62.6656C71.7422 62.6656 64.6476 59.8478 59.1766 55.1822C63.2937 57.1716 67.9119 58.2877 72.7909 58.2877C90.0956 58.2877 104.124 44.2594 104.124 26.9547C104.124 17.4034 99.8487 8.85219 93.1093 3.1051Z" fill="#1F2937"/>
</svg>
