<svg width="783" height="257" viewBox="0 0 783 257" fill="none" xmlns="http://www.w3.org/2000/svg">
<g clip-path="url(#clip0_92_20)">
<path d="M83.2153 228.456C82.2263 233.46 75.0297 233.478 74.1366 228.456L67.6937 178.992L62.1582 126.195H96.1013L90.0976 178.992L83.2153 228.456Z" fill="#1E3A8A"/>
<path d="M90.0496 179L83.1697 228.354C82.6968 230.74 80.8103 231.988 78.8708 232.099V228.354L81.5476 179L83.1697 126.322H96.0515L90.0496 179Z" fill="#1F2937"/>
<path d="M7.15006 82.7169C4.08334 78.0626 7.42148 71.8655 12.9953 71.8655L144.819 71.8655C150.353 71.8655 153.699 77.9851 150.711 82.6441L126.834 119.879C124.259 123.894 119.818 126.322 115.049 126.322H79.2921H43.4229C38.7152 126.322 34.3227 123.956 31.7325 120.025L7.15006 82.7169Z" fill="#1E3A8A"/>
<path d="M144.819 71.8654C150.353 71.8656 153.699 77.9849 150.712 82.6437L126.834 119.879C124.259 123.894 119.818 126.322 115.049 126.322H81.5222C82.63 126.322 83.7344 126.19 84.8112 125.93L111.475 119.486C114.43 118.772 117.072 117.116 119.003 114.768L132.447 98.4093L147.084 79.7618C148.779 77.6019 147.483 74.4177 144.761 74.0548L135.868 72.9601L124.922 71.8654H144.819Z" fill="#1F2937"/>
<circle cx="79.5541" cy="35.3973" r="31.3973" fill="#1E3A8A"/>
<path d="M93.1093 7.1051C103.595 12.1713 110.829 22.9068 110.829 35.3326C110.829 52.6373 96.8006 66.6655 79.496 66.6656C71.7422 66.6656 64.6476 63.8478 59.1766 59.1822C63.2937 61.1716 67.9119 62.2877 72.7909 62.2877C90.0956 62.2877 104.124 48.2594 104.124 30.9547C104.124 21.4034 99.8487 12.8522 93.1093 7.1051Z" fill="#1F2937"/>
<path d="M242.979 223.153C231.152 223.153 220.728 221.103 211.704 217.001C202.749 212.899 195.776 206.952 190.786 199.159C185.796 191.366 183.301 181.898 183.301 170.756V92.8262L167.407 89.75V71.7031H229.238V89.75L213.242 92.8262V170.756C213.242 177.318 214.438 182.787 216.831 187.162C219.224 191.537 222.642 194.818 227.085 197.006C231.528 199.125 236.826 200.185 242.979 200.185C249.268 200.185 254.634 199.125 259.077 197.006C263.589 194.818 267.041 191.537 269.434 187.162C271.826 182.787 273.022 177.318 273.022 170.756V92.8262L257.129 89.75V71.7031H318.96V89.75L302.964 92.8262V170.756C302.964 181.898 300.435 191.4 295.376 199.262C290.386 207.055 283.379 213.002 274.355 217.104C265.4 221.137 254.941 223.153 242.979 223.153ZM398.12 223.153C383.286 223.153 370.64 220.077 360.181 213.925C349.722 207.772 341.689 199.228 336.084 188.29C330.547 177.353 327.778 164.672 327.778 150.248V145.121C327.778 130.219 330.547 117.094 336.084 105.746C341.621 94.3984 349.448 85.5459 359.565 79.1885C369.751 72.7627 381.782 69.5498 395.659 69.5498C406.392 69.5498 416.475 71.0195 425.908 73.959C435.342 76.8984 443.545 81.3076 450.518 87.1865V120.307H428.369L424.165 100.312C421.499 97.9873 417.91 96.1416 413.398 94.7744C408.887 93.3389 403.726 92.6211 397.915 92.6211C389.575 92.6211 382.363 94.8428 376.279 99.2861C370.264 103.661 365.649 109.779 362.437 117.641C359.224 125.434 357.617 134.525 357.617 144.916V150.248C357.617 160.365 359.189 169.184 362.334 176.703C365.547 184.154 370.229 189.931 376.382 194.032C382.534 198.134 390.088 200.185 399.043 200.185C404.307 200.185 409.126 199.706 413.501 198.749C417.944 197.724 421.602 196.493 424.473 195.058V169.73L403.145 168.09V147.069H454.517V207.465C447.886 212.182 439.888 215.976 430.522 218.847C421.226 221.718 410.425 223.153 398.12 223.153ZM537.983 223.153C527.935 223.153 518.774 221.273 510.503 217.514C502.231 213.754 495.088 208.49 489.072 201.723C483.125 194.887 478.545 186.889 475.332 177.729C472.119 168.5 470.513 158.417 470.513 147.479V145.224C470.513 134.354 472.119 124.34 475.332 115.18C478.545 105.951 483.125 97.9189 489.072 91.083C495.02 84.2471 502.129 78.9492 510.4 75.1895C518.672 71.4297 527.832 69.5498 537.881 69.5498C547.998 69.5498 557.227 71.4297 565.566 75.1895C573.906 78.9492 581.084 84.2471 587.1 91.083C593.115 97.9189 597.729 105.951 600.942 115.18C604.224 124.34 605.864 134.354 605.864 145.224V147.479C605.864 158.417 604.224 168.5 600.942 177.729C597.729 186.889 593.115 194.887 587.1 201.723C581.084 208.49 573.906 213.754 565.566 217.514C557.295 221.273 548.101 223.153 537.983 223.153ZM537.983 199.877C546.46 199.877 553.501 197.689 559.106 193.314C564.712 188.939 568.916 182.821 571.719 174.96C574.59 167.099 576.025 157.938 576.025 147.479V145.019C576.025 134.696 574.59 125.639 571.719 117.846C568.848 109.984 564.575 103.866 558.901 99.4912C553.296 95.1162 546.289 92.9287 537.881 92.9287C529.541 92.9287 522.603 95.1162 517.065 99.4912C511.528 103.798 507.358 109.848 504.556 117.641C501.821 125.434 500.454 134.56 500.454 145.019V147.479C500.454 157.938 501.821 167.099 504.556 174.96C507.358 182.821 511.528 188.939 517.065 193.314C522.671 197.689 529.644 199.877 537.983 199.877ZM617.861 221V203.056L633.755 199.979V92.8262L617.861 89.75V71.7031H633.755H664.106L729.116 175.268L729.731 175.165V92.8262L710.659 89.75V71.7031H756.494H772.49V89.75L756.494 92.8262V221H727.578L661.133 118.461L660.518 118.563V199.979L679.692 203.056V221H617.861Z" fill="#1F2937"/>
<path d="M236.979 223.153C225.152 223.153 214.728 221.103 205.704 217.001C196.749 212.899 189.776 206.952 184.786 199.159C179.796 191.366 177.301 181.898 177.301 170.756V92.8262L161.407 89.75V71.7031H223.238V89.75L207.242 92.8262V170.756C207.242 177.318 208.438 182.787 210.831 187.162C213.224 191.537 216.642 194.818 221.085 197.006C225.528 199.125 230.826 200.185 236.979 200.185C243.268 200.185 248.634 199.125 253.077 197.006C257.589 194.818 261.041 191.537 263.434 187.162C265.826 182.787 267.022 177.318 267.022 170.756V92.8262L251.129 89.75V71.7031H312.96V89.75L296.964 92.8262V170.756C296.964 181.898 294.435 191.4 289.376 199.262C284.386 207.055 277.379 213.002 268.355 217.104C259.4 221.137 248.941 223.153 236.979 223.153ZM392.12 223.153C377.286 223.153 364.64 220.077 354.181 213.925C343.722 207.772 335.689 199.228 330.084 188.29C324.547 177.353 321.778 164.672 321.778 150.248V145.121C321.778 130.219 324.547 117.094 330.084 105.746C335.621 94.3984 343.448 85.5459 353.565 79.1885C363.751 72.7627 375.782 69.5498 389.659 69.5498C400.392 69.5498 410.475 71.0195 419.908 73.959C429.342 76.8984 437.545 81.3076 444.518 87.1865V120.307H422.369L418.165 100.312C415.499 97.9873 411.91 96.1416 407.398 94.7744C402.887 93.3389 397.726 92.6211 391.915 92.6211C383.575 92.6211 376.363 94.8428 370.279 99.2861C364.264 103.661 359.649 109.779 356.437 117.641C353.224 125.434 351.617 134.525 351.617 144.916V150.248C351.617 160.365 353.189 169.184 356.334 176.703C359.547 184.154 364.229 189.931 370.382 194.032C376.534 198.134 384.088 200.185 393.043 200.185C398.307 200.185 403.126 199.706 407.501 198.749C411.944 197.724 415.602 196.493 418.473 195.058V169.73L397.145 168.09V147.069H448.517V207.465C441.886 212.182 433.888 215.976 424.522 218.847C415.226 221.718 404.425 223.153 392.12 223.153ZM531.983 223.153C521.935 223.153 512.774 221.273 504.503 217.514C496.231 213.754 489.088 208.49 483.072 201.723C477.125 194.887 472.545 186.889 469.332 177.729C466.119 168.5 464.513 158.417 464.513 147.479V145.224C464.513 134.354 466.119 124.34 469.332 115.18C472.545 105.951 477.125 97.9189 483.072 91.083C489.02 84.2471 496.129 78.9492 504.4 75.1895C512.672 71.4297 521.832 69.5498 531.881 69.5498C541.998 69.5498 551.227 71.4297 559.566 75.1895C567.906 78.9492 575.084 84.2471 581.1 91.083C587.115 97.9189 591.729 105.951 594.942 115.18C598.224 124.34 599.864 134.354 599.864 145.224V147.479C599.864 158.417 598.224 168.5 594.942 177.729C591.729 186.889 587.115 194.887 581.1 201.723C575.084 208.49 567.906 213.754 559.566 217.514C551.295 221.273 542.101 223.153 531.983 223.153ZM531.983 199.877C540.46 199.877 547.501 197.689 553.106 193.314C558.712 188.939 562.916 182.821 565.719 174.96C568.59 167.099 570.025 157.938 570.025 147.479V145.019C570.025 134.696 568.59 125.639 565.719 117.846C562.848 109.984 558.575 103.866 552.901 99.4912C547.296 95.1162 540.289 92.9287 531.881 92.9287C523.541 92.9287 516.603 95.1162 511.065 99.4912C505.528 103.798 501.358 109.848 498.556 117.641C495.821 125.434 494.454 134.56 494.454 145.019V147.479C494.454 157.938 495.821 167.099 498.556 174.96C501.358 182.821 505.528 188.939 511.065 193.314C516.671 197.689 523.644 199.877 531.983 199.877ZM611.861 221V203.056L627.755 199.979V92.8262L611.861 89.75V71.7031H627.755H658.106L723.116 175.268L723.731 175.165V92.8262L704.659 89.75V71.7031H750.494H766.49V89.75L750.494 92.8262V221H721.578L655.133 118.461L654.518 118.563V199.979L673.692 203.056V221H611.861Z" fill="#1E3A8A"/>
</g>
<defs>
<clipPath id="clip0_92_20">
<rect width="783" height="257" fill="white"/>
</clipPath>
</defs>
</svg>
