<svg width="775" height="257" viewBox="0 0 775 257" fill="none" xmlns="http://www.w3.org/2000/svg">
<path d="M83.2153 228.456C82.2263 233.46 75.0297 233.478 74.1366 228.456L67.6937 178.992L62.1582 126.195H96.1013L90.0976 178.992L83.2153 228.456Z" fill="white"/>
<path d="M90.0496 179L83.1697 228.353C82.6968 230.74 80.8103 231.988 78.8708 232.099V228.353L81.5476 179L83.1697 126.322H96.0515L90.0496 179Z" fill="#B4B4B4"/>
<path d="M7.15006 82.7169C4.08334 78.0626 7.42148 71.8655 12.9953 71.8655L144.819 71.8655C150.353 71.8655 153.699 77.9851 150.711 82.6441L126.834 119.879C124.259 123.894 119.818 126.322 115.049 126.322H79.2921H43.4229C38.7152 126.322 34.3227 123.956 31.7325 120.025L7.15006 82.7169Z" fill="white"/>
<path d="M144.819 71.8654C150.353 71.8656 153.699 77.9849 150.712 82.6437L126.834 119.879C124.259 123.894 119.818 126.322 115.049 126.322H81.5222C82.63 126.322 83.7344 126.19 84.8112 125.93L111.475 119.486C114.43 118.772 117.072 117.116 119.003 114.768L132.447 98.4093L147.084 79.7618C148.779 77.6019 147.483 74.4177 144.761 74.0548L135.868 72.9601L124.922 71.8654H144.819Z" fill="#B4B4B4"/>
<circle cx="79.5541" cy="35.3973" r="31.3973" fill="white"/>
<path d="M93.1093 7.10516C103.595 12.1714 110.829 22.9069 110.829 35.3327C110.829 52.6374 96.8006 66.6655 79.496 66.6657C71.7422 66.6657 64.6476 63.8479 59.1766 59.1823C63.2937 61.1717 67.9119 62.2877 72.7909 62.2878C90.0956 62.2878 104.124 48.2595 104.124 30.9548C104.124 21.4034 99.8487 12.8523 93.1093 7.10516Z" fill="#B4B4B4"/>
<path d="M240.643 223.153C228.817 223.153 218.392 221.103 209.368 217.001C200.413 212.899 193.441 206.952 188.45 199.159C183.46 191.366 180.965 181.898 180.965 170.756V92.8262L165.072 89.75V71.7031H226.903V89.75L210.907 92.8262V170.756C210.907 177.318 212.103 182.787 214.495 187.162C216.888 191.537 220.306 194.818 224.749 197.006C229.193 199.125 234.491 200.185 240.643 200.185C246.932 200.185 252.298 199.125 256.741 197.006C261.253 194.818 264.705 191.537 267.098 187.162C269.491 182.787 270.687 177.318 270.687 170.756V92.8262L254.793 89.75V71.7031H316.624V89.75L300.628 92.8262V170.756C300.628 181.898 298.099 191.4 293.04 199.262C288.05 207.055 281.043 213.002 272.02 217.104C263.065 221.137 252.606 223.153 240.643 223.153ZM395.784 223.153C380.95 223.153 368.304 220.077 357.845 213.925C347.386 207.772 339.354 199.228 333.748 188.29C328.211 177.353 325.443 164.672 325.443 150.248V145.121C325.443 130.219 328.211 117.094 333.748 105.746C339.285 94.3984 347.113 85.5459 357.23 79.1885C367.415 72.7627 379.447 69.5498 393.324 69.5498C404.056 69.5498 414.139 71.0195 423.573 73.959C433.006 76.8984 441.209 81.3076 448.182 87.1865V120.307H426.033L421.829 100.312C419.163 97.9873 415.574 96.1416 411.063 94.7744C406.551 93.3389 401.39 92.6211 395.579 92.6211C387.24 92.6211 380.028 94.8428 373.944 99.2861C367.928 103.661 363.314 109.779 360.101 117.641C356.888 125.434 355.282 134.525 355.282 144.916V150.248C355.282 160.365 356.854 169.184 359.998 176.703C363.211 184.154 367.894 189.931 374.046 194.032C380.199 198.134 387.752 200.185 396.707 200.185C401.971 200.185 406.79 199.706 411.165 198.749C415.609 197.724 419.266 196.493 422.137 195.058V169.73L400.809 168.09V147.069H452.181V207.465C445.55 212.182 437.552 215.976 428.187 218.847C418.89 221.718 408.089 223.153 395.784 223.153ZM535.648 223.153C525.599 223.153 516.439 221.273 508.167 217.514C499.896 213.754 492.752 208.49 486.737 201.723C480.789 194.887 476.209 186.889 472.996 177.729C469.783 168.5 468.177 158.417 468.177 147.479V145.224C468.177 134.354 469.783 124.34 472.996 115.18C476.209 105.951 480.789 97.9189 486.737 91.083C492.684 84.2471 499.793 78.9492 508.065 75.1895C516.336 71.4297 525.496 69.5498 535.545 69.5498C545.662 69.5498 554.891 71.4297 563.231 75.1895C571.571 78.9492 578.748 84.2471 584.764 91.083C590.78 97.9189 595.394 105.951 598.607 115.18C601.888 124.34 603.529 134.354 603.529 145.224V147.479C603.529 158.417 601.888 168.5 598.607 177.729C595.394 186.889 590.78 194.887 584.764 201.723C578.748 208.49 571.571 213.754 563.231 217.514C554.959 221.273 545.765 223.153 535.648 223.153ZM535.648 199.877C544.124 199.877 551.165 197.689 556.771 193.314C562.376 188.939 566.58 182.821 569.383 174.96C572.254 167.099 573.69 157.938 573.69 147.479V145.019C573.69 134.696 572.254 125.639 569.383 117.846C566.512 109.984 562.24 103.866 556.566 99.4912C550.96 95.1162 543.953 92.9287 535.545 92.9287C527.205 92.9287 520.267 95.1162 514.73 99.4912C509.193 103.798 505.023 109.848 502.22 117.641C499.486 125.434 498.118 134.56 498.118 145.019V147.479C498.118 157.938 499.486 167.099 502.22 174.96C505.023 182.821 509.193 188.939 514.73 193.314C520.335 197.689 527.308 199.877 535.648 199.877ZM615.526 221V203.056L631.419 199.979V92.8262L615.526 89.75V71.7031H631.419H661.771L726.781 175.268L727.396 175.165V92.8262L708.324 89.75V71.7031H754.158H770.155V89.75L754.158 92.8262V221H725.242L658.797 118.461L658.182 118.563V199.979L677.357 203.056V221H615.526Z" fill="#B4B4B4"/>
<path d="M236.314 223.153C224.488 223.153 214.063 221.103 205.04 217.001C196.085 212.899 189.112 206.952 184.122 199.159C179.132 191.366 176.636 181.898 176.636 170.756V92.8262L160.743 89.75V71.7031H222.574V89.75L206.578 92.8262V170.756C206.578 177.318 207.774 182.787 210.167 187.162C212.559 191.537 215.977 194.818 220.421 197.006C224.864 199.125 230.162 200.185 236.314 200.185C242.603 200.185 247.969 199.125 252.413 197.006C256.925 194.818 260.377 191.537 262.769 187.162C265.162 182.787 266.358 177.318 266.358 170.756V92.8262L250.465 89.75V71.7031H312.296V89.75L296.3 92.8262V170.756C296.3 181.898 293.77 191.4 288.712 199.262C283.721 207.055 276.715 213.002 267.691 217.104C258.736 221.137 248.277 223.153 236.314 223.153ZM391.456 223.153C376.622 223.153 363.975 220.077 353.516 213.925C343.057 207.772 335.025 199.228 329.42 188.29C323.883 177.353 321.114 164.672 321.114 150.248V145.121C321.114 130.219 323.883 117.094 329.42 105.746C334.957 94.3984 342.784 85.5459 352.901 79.1885C363.087 72.7627 375.118 69.5498 388.995 69.5498C399.727 69.5498 409.81 71.0195 419.244 73.959C428.677 76.8984 436.881 81.3076 443.853 87.1865V120.307H421.705L417.501 100.312C414.835 97.9873 411.246 96.1416 406.734 94.7744C402.222 93.3389 397.061 92.6211 391.251 92.6211C382.911 92.6211 375.699 94.8428 369.615 99.2861C363.599 103.661 358.985 109.779 355.772 117.641C352.559 125.434 350.953 134.525 350.953 144.916V150.248C350.953 160.365 352.525 169.184 355.67 176.703C358.883 184.154 363.565 189.931 369.717 194.032C375.87 198.134 383.424 200.185 392.379 200.185C397.642 200.185 402.462 199.706 406.837 198.749C411.28 197.724 414.937 196.493 417.808 195.058V169.73L396.48 168.09V147.069H447.852V207.465C441.221 212.182 433.223 215.976 423.858 218.847C414.561 221.718 403.76 223.153 391.456 223.153ZM531.319 223.153C521.27 223.153 512.11 221.273 503.839 217.514C495.567 213.754 488.424 208.49 482.408 201.723C476.461 194.887 471.881 186.889 468.668 177.729C465.455 168.5 463.848 158.417 463.848 147.479V145.224C463.848 134.354 465.455 124.34 468.668 115.18C471.881 105.951 476.461 97.9189 482.408 91.083C488.355 84.2471 495.465 78.9492 503.736 75.1895C512.008 71.4297 521.168 69.5498 531.217 69.5498C541.334 69.5498 550.562 71.4297 558.902 75.1895C567.242 78.9492 574.42 84.2471 580.435 91.083C586.451 97.9189 591.065 105.951 594.278 115.18C597.559 124.34 599.2 134.354 599.2 145.224V147.479C599.2 158.417 597.559 168.5 594.278 177.729C591.065 186.889 586.451 194.887 580.435 201.723C574.42 208.49 567.242 213.754 558.902 217.514C550.631 221.273 541.436 223.153 531.319 223.153ZM531.319 199.877C539.796 199.877 546.837 197.689 552.442 193.314C558.048 188.939 562.252 182.821 565.054 174.96C567.926 167.099 569.361 157.938 569.361 147.479V145.019C569.361 134.696 567.926 125.639 565.054 117.846C562.183 109.984 557.911 103.866 552.237 99.4912C546.632 95.1162 539.625 92.9287 531.217 92.9287C522.877 92.9287 515.938 95.1162 510.401 99.4912C504.864 103.798 500.694 109.848 497.891 117.641C495.157 125.434 493.79 134.56 493.79 145.019V147.479C493.79 157.938 495.157 167.099 497.891 174.96C500.694 182.821 504.864 188.939 510.401 193.314C516.007 197.689 522.979 199.877 531.319 199.877ZM611.197 221V203.056L627.091 199.979V92.8262L611.197 89.75V71.7031H627.091H657.442L722.452 175.268L723.067 175.165V92.8262L703.995 89.75V71.7031H749.83H765.826V89.75L749.83 92.8262V221H720.914L654.468 118.461L653.853 118.563V199.979L673.028 203.056V221H611.197Z" fill="white"/>
</svg>
