<svg xmlns="http://www.w3.org/2000/svg" viewBox="0 0 800 800" role="img" aria-label="Map of Barangays 251, 252, 256 in Tondo, Manila"><rect width="800" height="800" fill="#f5f7fb"/><defs><pattern id="grid-light" width="40" height="40" patternUnits="userSpaceOnUse"><path d="M40 0H0V40" fill="none" stroke="rgba(0,35,111,0.05)" stroke-width="1"/></pattern></defs><rect width="800" height="800" fill="url(#grid-light)"/><polygon points="363.49,403.46 411.66,410.62 333.43,706.57 295.27,699.45 230.43,684.70 196.15,680.48 198.02,671.36 269.34,376.67 363.49,403.46" fill="rgba(185,28,28,0.18)" stroke="#b91c1c" stroke-width="2.5" stroke-linejoin="round"/><polygon points="269.34,376.67 198.02,671.36 196.15,680.48 189.44,703.07 169.64,699.29 160.08,740.00 74.09,720.51 88.95,661.12 123.45,511.76 164.93,350.56 269.34,376.67" fill="rgba(254,177,76,0.22)" stroke="#865300" stroke-width="2.5" stroke-linejoin="round"/><polygon points="515.69,68.70 574.45,74.74 584.24,99.71 593.24,124.28 615.88,165.32 638.50,207.91 671.23,275.34 690.05,314.72 708.98,351.54 721.08,384.16 725.91,409.55 725.63,481.97 657.22,466.76 588.48,451.61 571.86,448.11 514.95,435.85 481.02,426.99 445.23,417.52 411.66,410.62 363.49,403.46 393.31,271.66 424.64,145.96 431.17,60.00 515.69,68.70" fill="rgba(15,118,110,0.18)" stroke="#0F766E" stroke-width="2.5" stroke-linejoin="round"/><g transform="translate(295.70,559.64)"><rect x="-44" y="-13" width="88" height="26" rx="6" fill="rgba(255,255,255,0.95)" stroke="#b91c1c" stroke-width="1.5"/><text x="0" y="5" text-anchor="middle" font-family="'Public Sans',system-ui,sans-serif" font-size="13" font-weight="700" fill="#0d1c2e">Brgy 251</text></g><g transform="translate(173.04,590.14)"><rect x="-44" y="-13" width="88" height="26" rx="6" fill="rgba(255,255,255,0.95)" stroke="#865300" stroke-width="1.5"/><text x="0" y="5" text-anchor="middle" font-family="'Public Sans',system-ui,sans-serif" font-size="13" font-weight="700" fill="#0d1c2e">Brgy 252</text></g><g transform="translate(565.15,290.22)"><rect x="-44" y="-13" width="88" height="26" rx="6" fill="rgba(255,255,255,0.95)" stroke="#0F766E" stroke-width="1.5"/><text x="0" y="5" text-anchor="middle" font-family="'Public Sans',system-ui,sans-serif" font-size="13" font-weight="700" fill="#0d1c2e">Brgy 256</text></g></svg>